<svg viewBox="0 0 1000 1000" xmlns="http://www.w3.org/2000/svg"><defs><linearGradient id="b" gradientTransform="rotate(270 .5 .5)"><stop offset="0%" stop-color="#607d4c"/><stop offset="100%" stop-color="#e9bd4f"/></linearGradient><clipPath id="a"><path fill="currentColor" d="M814 612q-6 112-111.5 149.5t-217 81.5q-111.5 44-224-22T82 627.5Q15 500 74.5 367t194-149Q403 202 524 128.5t200 39Q803 280 811.5 390t2.5 222Z"/></clipPath></defs><g clip-path="url(#a)"><path fill="url(#b)" d="M814 612q-6 112-111.5 149.5t-217 81.5q-111.5 44-224-22T82 627.5Q15 500 74.5 367t194-149Q403 202 524 128.5t200 39Q803 280 811.5 390t2.5 222Z"/></g></svg>